<svg width="34" height="33" viewBox="0 0 34 33" fill="none" xmlns="http://www.w3.org/2000/svg">
<path fill-rule="evenodd" clip-rule="evenodd" d="M17 2.38679C8.95242 2.38679 2.42857 8.7984 2.42857 16.7075C2.42857 22.9418 6.48298 28.2479 12.1429 30.2138V27.4469C10.5141 27.4065 9.07977 26.3676 8.56232 24.842C8.36501 24.2603 7.81109 23.8679 7.18719 23.8679H6.67857C6.00794 23.8679 5.46429 23.3336 5.46429 22.6745C5.46429 22.0154 6.00794 21.4811 6.67857 21.4811H7.18719C8.85644 21.4811 10.3384 22.5309 10.8663 24.0872C11.0531 24.6381 11.5598 25.0192 12.1429 25.058V24.1199C12.1429 23.3865 12.2804 22.6633 12.5446 21.9853C11.1419 21.5254 9.89524 20.8475 8.91214 19.9914C7.57485 18.8268 6.67857 17.282 6.67857 15.5154C6.67857 14.2528 7.13872 13.0967 7.89286 12.1157V8.35376C7.89286 7.96235 8.08815 7.59583 8.41549 7.37288C8.74283 7.14994 9.1606 7.09892 9.53351 7.23635L13.6211 8.7428C14.6823 8.49167 15.8199 8.35639 17 8.35639C18.1801 8.35639 19.3177 8.49167 20.3789 8.7428L24.4665 7.23635C24.8394 7.09892 25.2572 7.14994 25.5845 7.37288C25.9119 7.59583 26.1071 7.96235 26.1071 8.35376V12.1157C26.8612 13.0967 27.3214 14.2528 27.3214 15.5154C27.3214 17.282 26.4252 18.8268 25.0879 19.9914C24.1048 20.8475 22.8581 21.5254 21.4554 21.9853C21.7196 22.6633 21.8571 23.3865 21.8571 24.1199V30.2138C27.517 28.2479 31.5714 22.9418 31.5714 16.7075C31.5714 8.7984 25.0477 2.38679 17 2.38679ZM14.5714 31.8066C14.5714 32.1714 14.4017 32.5161 14.1106 32.7424C13.8196 32.9688 13.4392 33.0519 13.078 32.968C5.58042 31.2273 0 24.6094 0 16.7075C0 7.48022 7.61116 0 17 0C26.389 0 34 7.48022 34 16.7075C34 24.6094 28.4196 31.2273 20.922 32.968C20.5608 33.0519 20.1804 32.9688 19.8894 32.7424C19.5983 32.5161 19.4286 32.1714 19.4286 31.8066V24.1199C19.4286 23.413 19.2157 22.722 18.8167 22.1339L18.6479 21.8849C18.4235 21.5542 18.3815 21.1354 18.5357 20.7679C18.6899 20.4004 19.0202 20.1326 19.4166 20.0535C21.1141 19.7146 22.5198 19.0388 23.4773 18.205C24.4312 17.3743 24.8929 16.4378 24.8929 15.5154C24.8929 14.7666 24.5914 14.0181 23.9749 13.3185C23.7838 13.1016 23.6786 12.8242 23.6786 12.5373V10.0758L20.8739 11.1095C20.6351 11.1975 20.3741 11.2094 20.128 11.1434C19.1714 10.8869 18.1149 10.7432 17 10.7432C15.8851 10.7432 14.8286 10.8869 13.872 11.1434C13.6259 11.2094 13.3649 11.1975 13.1261 11.1095L10.3214 10.0758V12.5373C10.3214 12.8242 10.2162 13.1016 10.025 13.3186C9.40855 14.0181 9.10714 14.7666 9.10714 15.5154C9.10714 16.4378 9.56882 17.3743 10.5227 18.205C11.4802 19.0388 12.8859 19.7146 14.5834 20.0535C14.9798 20.1326 15.3101 20.4004 15.4643 20.7679C15.6185 21.1354 15.5765 21.5542 15.3521 21.8849L15.1833 22.1339C14.7843 22.722 14.5714 23.413 14.5714 24.1199V31.8066Z" fill="#333333"/>
</svg>
